<svg xmlns="http://www.w3.org/2000/svg" width="1120" height="540" viewBox="0 0 1120 540" font-family="ui-monospace, SFMono-Regular, Menlo, monospace">
  <defs>
    <marker id="arr" markerWidth="9" markerHeight="7" refX="8" refY="3.5" orient="auto">
      <polygon points="0 0, 9 3.5, 0 7" fill="#818cf8" />
    </marker>
    <marker id="arrAmber" markerWidth="9" markerHeight="7" refX="8" refY="3.5" orient="auto">
      <polygon points="0 0, 9 3.5, 0 7" fill="#f59e0b" />
    </marker>
    <linearGradient id="ci" x1="0" y1="0" x2="1" y2="0">
      <stop offset="0" stop-color="#22d3ee" />
      <stop offset="1" stop-color="#818cf8" />
    </linearGradient>
  </defs>

  <rect width="1120" height="540" fill="#0a0a0a" />

  <!-- ephemeral-runner container -->
  <rect x="20" y="64" width="1080" height="300" rx="14" fill="#0b0e14" stroke="#1e293b" stroke-width="1.2" stroke-dasharray="2 5" />
  <text x="40" y="92" fill="#64748b" font-size="13">ephemeral GitHub Actions runner · ~5 min · no persistent disk</text>

  <!-- title + cron -->
  <text x="40" y="40" fill="#e2e8f0" font-size="20" font-weight="700">Mexico Jobs Analytics Pipeline — run topology</text>
  <g font-size="12.5">
    <rect x="772" y="22" width="150" height="24" rx="12" fill="#0d1117" stroke="#334155" />
    <text x="847" y="38" text-anchor="middle" fill="#94a3b8">0 14 * * 1  weekly</text>
    <rect x="934" y="22" width="160" height="24" rx="12" fill="#0d1117" stroke="#334155" />
    <text x="1014" y="38" text-anchor="middle" fill="#94a3b8">0 15 1 * *  monthly</text>
  </g>

  <!-- upstream source (outside the runner, left) -->
  <g>
    <rect x="40" y="150" width="120" height="128" rx="9" fill="#0d1117" stroke="#475569" stroke-width="1.3" />
    <text x="100" y="178" text-anchor="middle" fill="#cbd5e1" font-size="13" font-weight="700">upstream</text>
    <text x="100" y="198" text-anchor="middle" fill="#64748b" font-size="11">data branch</text>
    <text x="100" y="226" text-anchor="middle" fill="#22d3ee" font-size="12">9,661</text>
    <text x="100" y="242" text-anchor="middle" fill="#64748b" font-size="10.5">snapshots</text>
    <text x="100" y="262" text-anchor="middle" fill="#64748b" font-size="10">checked out</text>
  </g>

  <!-- stage helper positions: x starts 200, width 150, gap 18 -->
  <!-- 1 workspace -->
  <g>
    <rect x="200" y="150" width="150" height="128" rx="9" fill="#0d1117" stroke="#22d3ee" stroke-width="1.4" />
    <text x="275" y="176" text-anchor="middle" fill="#67e8f9" font-size="13" font-weight="700">workspace</text>
    <line x1="218" y1="188" x2="332" y2="188" stroke="#1e293b" />
    <text x="275" y="210" text-anchor="middle" fill="#cbd5e1" font-size="11">validate + git</text>
    <text x="275" y="226" text-anchor="middle" fill="#cbd5e1" font-size="11">seed upstream</text>
    <text x="275" y="256" text-anchor="middle" fill="#64748b" font-size="10">auto-seed fallback</text>
  </g>
  <!-- 2 curate -->
  <g>
    <rect x="368" y="150" width="150" height="128" rx="9" fill="#0d1117" stroke="#22d3ee" stroke-width="1.4" />
    <text x="443" y="176" text-anchor="middle" fill="#67e8f9" font-size="13" font-weight="700">curate</text>
    <line x1="386" y1="188" x2="500" y2="188" stroke="#1e293b" />
    <text x="443" y="210" text-anchor="middle" fill="#cbd5e1" font-size="11">DuckDB store</text>
    <text x="443" y="226" text-anchor="middle" fill="#94a3b8" font-size="10.5">CREATE OR REPLACE</text>
    <text x="443" y="252" text-anchor="middle" fill="#64748b" font-size="10">+ Parquet sidecars</text>
  </g>
  <!-- 3 report -->
  <g>
    <rect x="536" y="150" width="150" height="128" rx="9" fill="#0d1117" stroke="#22d3ee" stroke-width="1.4" />
    <text x="611" y="176" text-anchor="middle" fill="#67e8f9" font-size="13" font-weight="700">report</text>
    <line x1="554" y1="188" x2="668" y2="188" stroke="#1e293b" />
    <text x="611" y="210" text-anchor="middle" fill="#cbd5e1" font-size="11">1 OpenAI call</text>
    <text x="611" y="226" text-anchor="middle" fill="#cbd5e1" font-size="11">→ EN + ES</text>
    <text x="611" y="252" text-anchor="middle" fill="#64748b" font-size="10">closed periods only</text>
  </g>
  <!-- 4 site -->
  <g>
    <rect x="704" y="150" width="150" height="128" rx="9" fill="#0d1117" stroke="#22d3ee" stroke-width="1.4" />
    <text x="779" y="176" text-anchor="middle" fill="#67e8f9" font-size="13" font-weight="700">site</text>
    <line x1="722" y1="188" x2="836" y2="188" stroke="#1e293b" />
    <text x="779" y="210" text-anchor="middle" fill="#cbd5e1" font-size="11">MkDocs source</text>
    <text x="779" y="226" text-anchor="middle" fill="#cbd5e1" font-size="11">from bundles</text>
  </g>
  <!-- 5 docs gate -->
  <g>
    <rect x="872" y="150" width="150" height="128" rx="9" fill="#0d1117" stroke="#818cf8" stroke-width="1.4" />
    <text x="947" y="176" text-anchor="middle" fill="#a5b4fc" font-size="13" font-weight="700">docs gate</text>
    <line x1="890" y1="188" x2="1004" y2="188" stroke="#1e293b" />
    <text x="947" y="210" text-anchor="middle" fill="#cbd5e1" font-size="11">mkdocs build</text>
    <text x="947" y="226" text-anchor="middle" fill="#cbd5e1" font-size="11">--strict</text>
    <text x="947" y="252" text-anchor="middle" fill="#64748b" font-size="10">blocks deploy</text>
  </g>

  <!-- arrows between stages -->
  <g stroke="#818cf8" stroke-width="1.6">
    <line x1="160" y1="214" x2="196" y2="214" marker-end="url(#arr)" />
    <line x1="350" y1="214" x2="364" y2="214" marker-end="url(#arr)" />
    <line x1="518" y1="214" x2="532" y2="214" marker-end="url(#arr)" />
    <line x1="686" y1="214" x2="700" y2="214" marker-end="url(#arr)" />
    <line x1="854" y1="214" x2="868" y2="214" marker-end="url(#arr)" />
  </g>

  <!-- deploy out to Pages -->
  <line x1="947" y1="278" x2="947" y2="408" stroke="#22d3ee" stroke-width="1.6" marker-end="url(#arr)" />
  <g>
    <rect x="836" y="408" width="222" height="58" rx="9" fill="#0d1117" stroke="#22d3ee" stroke-width="1.4" />
    <text x="947" y="432" text-anchor="middle" fill="#67e8f9" font-size="13" font-weight="700">GitHub Pages</text>
    <text x="947" y="452" text-anchor="middle" fill="#64748b" font-size="10.5">upload-pages-artifact · deploy-pages</text>
  </g>

  <!-- optional cloud branch (dashed amber) -->
  <line x1="611" y1="278" x2="611" y2="410" stroke="#f59e0b" stroke-width="1.5" stroke-dasharray="5 4" marker-end="url(#arrAmber)" />
  <g>
    <rect x="468" y="410" width="286" height="58" rx="9" fill="#140f02" stroke="#f59e0b" stroke-width="1.3" stroke-dasharray="5 4" />
    <text x="611" y="432" text-anchor="middle" fill="#fcd34d" font-size="13" font-weight="700">cloud delivery — built, never live</text>
    <text x="611" y="452" text-anchor="middle" fill="#b08436" font-size="10.5">Cloud Run + BigQuery · status: not_requested (14/14)</text>
  </g>

  <!-- footer streak bar -->
  <rect x="40" y="500" width="1040" height="22" rx="11" fill="#0d1117" stroke="#1e293b" />
  <rect x="40" y="500" width="1040" height="22" rx="11" fill="url(#ci)" fill-opacity="0.10" />
  <text x="560" y="515" text-anchor="middle" fill="#94a3b8" font-size="12.5">14 / 14 unattended scheduled runs succeeded since 2026-03-30 · zero servers</text>
</svg>
