<svg xmlns="http://www.w3.org/2000/svg" width="1120" height="440" viewBox="0 0 1120 440" font-family="ui-monospace, SFMono-Regular, Menlo, monospace">
  <defs>
    <marker id="a" markerWidth="9" markerHeight="7" refX="8" refY="3.5" orient="auto">
      <polygon points="0 0, 9 3.5, 0 7" fill="#818cf8" />
    </marker>
    <marker id="am" markerWidth="9" markerHeight="7" refX="8" refY="3.5" orient="auto">
      <polygon points="0 0, 9 3.5, 0 7" fill="#f59e0b" />
    </marker>
  </defs>
  <rect width="1120" height="440" fill="#0a0a0a" />
  <text x="48" y="48" fill="#e2e8f0" font-size="20" font-weight="700">The honest trade-off — stateless rebuild vs. the archive</text>
  <text x="48" y="74" fill="#64748b" font-size="13">Reproducible compute for free, but published history does not accumulate without a backfill.</text>

  <!-- gain side -->
  <g>
    <rect x="48" y="118" width="500" height="150" rx="12" fill="#0b0e14" stroke="#22d3ee" stroke-width="1.3" />
    <text x="72" y="148" fill="#67e8f9" font-size="14" font-weight="700">+ what stateless buys</text>
    <g font-size="12" fill="#cbd5e1">
      <text x="72" y="180">• deterministic — rebuilt whole every run</text>
      <text x="72" y="206">• no incremental state to corrupt</text>
      <text x="72" y="232">• zero servers, zero hosting cost</text>
      <text x="72" y="258">• debuggable for free at ~9.6k rows</text>
    </g>
  </g>

  <!-- cost side -->
  <g>
    <rect x="572" y="118" width="500" height="150" rx="12" fill="#140f02" stroke="#f59e0b" stroke-width="1.3" />
    <text x="596" y="148" fill="#fcd34d" font-size="14" font-weight="700">— what it costs</text>
    <g font-size="12" fill="#e7c38a">
      <text x="596" y="180">• each deploy replaces the published periods</text>
      <text x="596" y="206">• live site shows only the latest weekly bundle</text>
      <text x="596" y="232">• monthly archive does not accumulate publicly</text>
      <text x="596" y="258">• took 10 backfill runs to restore history</text>
    </g>
  </g>

  <!-- timeline of deploys overwriting -->
  <text x="48" y="318" fill="#94a3b8" font-size="12.5" font-weight="700">each deploy:</text>
  <g font-size="11" text-anchor="middle">
    <rect x="150" y="300" width="92" height="40" rx="7" fill="#0d1117" stroke="#334155" />
    <text x="196" y="324" fill="#64748b">W21</text>
    <line x1="242" y1="320" x2="266" y2="320" stroke="#f59e0b" stroke-width="1.5" stroke-dasharray="4 3" marker-end="url(#am)" />
    <rect x="270" y="300" width="92" height="40" rx="7" fill="#0d1117" stroke="#334155" />
    <text x="316" y="324" fill="#64748b">W22</text>
    <line x1="362" y1="320" x2="386" y2="320" stroke="#f59e0b" stroke-width="1.5" stroke-dasharray="4 3" marker-end="url(#am)" />
    <rect x="390" y="298" width="100" height="44" rx="7" fill="#0d1117" stroke="#22d3ee" stroke-width="1.4" />
    <text x="440" y="325" fill="#67e8f9">W23 live</text>
  </g>
  <text x="520" y="325" fill="#64748b" font-size="11">← only this one is published</text>

  <!-- backfill restore -->
  <g>
    <rect x="700" y="296" width="372" height="48" rx="9" fill="#0d1117" stroke="#818cf8" stroke-width="1.3" />
    <text x="886" y="318" text-anchor="middle" fill="#a5b4fc" font-size="12.5" font-weight="700">backfill-historical-reports.yml</text>
    <text x="886" y="335" text-anchor="middle" fill="#64748b" font-size="10.5">re-emits past periods to rebuild the public archive</text>
  </g>

  <text x="560" y="404" text-anchor="middle" fill="#e2e8f0" font-size="13" font-weight="700">Lesson: state has to live somewhere — keep the compute stateless, but give the archive a home.</text>
</svg>
