<svg xmlns="http://www.w3.org/2000/svg" width="1120" height="430" viewBox="0 0 1120 430" font-family="ui-monospace, SFMono-Regular, Menlo, monospace">
  <rect width="1120" height="430" fill="#0a0a0a" />
  <text x="48" y="48" fill="#e2e8f0" font-size="20" font-weight="700">Fail-closed validation, single attempts</text>
  <text x="48" y="74" fill="#64748b" font-size="13">Reliability comes from refusing to publish a bad run — not from retrying a flaky one.</text>

  <!-- execution gates panel -->
  <rect x="48" y="104" width="540" height="264" rx="12" fill="#0b0e14" stroke="#22d3ee" stroke-width="1.3" />
  <text x="72" y="138" fill="#67e8f9" font-size="14" font-weight="700">EXECUTION GATES</text>
  <g font-size="13.5">
    <g fill="#22d3ee"><path d="M76 174 l7 7 l13 -15" fill="none" stroke="#22d3ee" stroke-width="2.4" stroke-linecap="round" stroke-linejoin="round" /></g>
    <text x="108" y="180" fill="#cbd5e1">empty-snapshot guard</text>
    <text x="108" y="200" fill="#64748b" font-size="11">zero-job periods skip OpenAI, still write a valid report</text>

    <path d="M76 224 l7 7 l13 -15" fill="none" stroke="#22d3ee" stroke-width="2.4" stroke-linecap="round" stroke-linejoin="round" />
    <text x="108" y="230" fill="#cbd5e1">fail-closed env validation</text>
    <text x="108" y="250" fill="#64748b" font-size="11">invalid config → exit 1, never a half-built deploy</text>

    <path d="M76 274 l7 7 l13 -15" fill="none" stroke="#22d3ee" stroke-width="2.4" stroke-linecap="round" stroke-linejoin="round" />
    <text x="108" y="280" fill="#cbd5e1">strict MkDocs deploy gate</text>
    <text x="108" y="300" fill="#64748b" font-size="11">mkdocs build --strict blocks publish on any warning</text>

    <path d="M76 324 l7 7 l13 -15" fill="none" stroke="#22d3ee" stroke-width="2.4" stroke-linecap="round" stroke-linejoin="round" />
    <text x="108" y="330" fill="#cbd5e1">concurrency locks</text>
    <text x="108" y="350" fill="#64748b" font-size="11">overlapping publishes are prevented</text>
  </g>

  <!-- no retries panel -->
  <rect x="612" y="104" width="460" height="264" rx="12" fill="#140f02" stroke="#f59e0b" stroke-width="1.3" />
  <text x="636" y="138" fill="#fcd34d" font-size="14" font-weight="700">NO RETRIES — single attempt</text>
  <!-- crossed retry loop -->
  <g transform="translate(842 232)">
    <path d="M0 -42 a42 42 0 1 1 -30 12" fill="none" stroke="#475569" stroke-width="9" stroke-linecap="round" />
    <polygon points="-36 -18, -22 -28, -20 -8" fill="#475569" />
    <line x1="-44" y1="-44" x2="44" y2="44" stroke="#ef4444" stroke-width="7" stroke-linecap="round" />
    <line x1="44" y1="-44" x2="-44" y2="44" stroke="#ef4444" stroke-width="7" stroke-linecap="round" />
  </g>
  <text x="842" y="318" text-anchor="middle" fill="#e7c38a" font-size="12.5">OpenAI client: 60s timeout → failed-narration status</text>
  <text x="842" y="338" text-anchor="middle" fill="#b08436" font-size="11">a transient error fails the run; the next schedule rebuilds clean</text>

  <text x="560" y="398" text-anchor="middle" fill="#64748b" font-size="12.5">An honest design choice: at this cadence, a clean re-run beats hidden retry state.</text>
</svg>
