<svg xmlns="http://www.w3.org/2000/svg" width="1200" height="630" viewBox="0 0 1200 630" font-family="&#39;Geist Mono&#39;, ui-monospace, monospace">
  <defs>
    <pattern id="grid" width="46" height="46" patternUnits="userSpaceOnUse">
      <path d="M46 0 H0 V46" fill="none" stroke="#ffffff" stroke-opacity="0.035" stroke-width="1"></path>
    </pattern>
    <radialGradient id="glow" cx="624" cy="315" r="528" gradientUnits="userSpaceOnUse" gradientTransform="translate(0 112.1) scale(1 0.644)">
      <stop offset="0" stop-color="#22d3ee" stop-opacity="0.11"></stop>
      <stop offset="0.7" stop-color="#22d3ee" stop-opacity="0"></stop>
    </radialGradient>
    <marker id="ah" markerWidth="7" markerHeight="7" refX="5.5" refY="3" orient="auto">
      <path d="M0 0 L6 3 L0 6" fill="none" stroke="#22d3ee" stroke-width="1.3" stroke-opacity="0.7"></path>
    </marker>
  </defs>

  <rect width="1200" height="630" fill="#0a0a0a"></rect>
  <rect width="1200" height="630" fill="url(#glow)"></rect>
  <rect width="1200" height="630" fill="url(#grid)"></rect>

  
  <text x="64" y="90" font-family="&#39;Geist&#39;, system-ui, sans-serif" font-size="56" font-weight="700" letter-spacing="-1.4" fill="#ffffff">Clipsmith</text>

  
  <g fill="none" stroke="#22d3ee" stroke-width="1.5" stroke-opacity="0.4">
    <path d="M206 320 H220"></path>
    <path d="M220 210 V410"></path>
    <path d="M220 210 H234" marker-end="url(#ah)"></path>
    <path d="M220 260 H234" marker-end="url(#ah)"></path>
    <path d="M220 310 H234" marker-end="url(#ah)"></path>
    <path d="M220 360 H234" marker-end="url(#ah)"></path>
    <path d="M220 410 H234" marker-end="url(#ah)"></path>
    <path d="M534 210 H560"></path>
    <path d="M534 260 H560"></path>
    <path d="M534 310 H560"></path>
    <path d="M534 360 H560"></path>
    <path d="M534 410 H560"></path>
    <path d="M560 210 V410"></path>
    <path d="M560 312 H586" marker-end="url(#ah)"></path>
    <path d="M760 312 H798" marker-end="url(#ah)"></path>
    <path d="M1002 312 H1040" marker-end="url(#ah)"></path>
  </g>

  
  <rect x="64" y="262" width="142" height="116" rx="12" fill="#0d1117" stroke="#404040" stroke-width="1.5"></rect>
  <text x="135" y="292" text-anchor="middle" font-size="14" font-weight="700" letter-spacing="1.4" fill="#f5f5f5">INPUT</text>
  <g text-anchor="middle" font-size="13" fill="#d4d4d4">
    <text x="135" y="316">2-4 hr</text>
    <text x="135" y="334">Twitch VOD</text>
  </g>
  <text x="135" y="357" text-anchor="middle" font-size="11.5" fill="#737373">raw · unfiltered</text>

  
  <g>
    <rect x="234" y="190" width="300" height="40" rx="11" fill="#0d1117" stroke="#22d3ee" stroke-width="1.5"></rect>
    <rect x="234" y="240" width="300" height="40" rx="11" fill="#0d1117" stroke="#22d3ee" stroke-width="1.5"></rect>
    <rect x="234" y="290" width="300" height="40" rx="11" fill="#0d1117" stroke="#22d3ee" stroke-width="1.5"></rect>
    <rect x="234" y="340" width="300" height="40" rx="11" fill="#0d1117" stroke="#22d3ee" stroke-width="1.5"></rect>
    <rect x="234" y="390" width="300" height="40" rx="11" fill="#0d1117" stroke="#22d3ee" stroke-width="1.5"></rect>
  </g>
  <g font-size="14" fill="#e5e5e5">
    <text x="248" y="215">existing Twitch clips</text>
    <text x="248" y="265">!clip chat commands</text>
    <text x="248" y="315">chat-density bursts</text>
    <text x="248" y="365">transcript hype keywords</text>
    <text x="248" y="415">audio-RMS spikes</text>
  </g>
  
  <g fill="none" stroke="#22d3ee" stroke-opacity="0.55" stroke-width="1">
    <rect x="474" y="199" width="46" height="22" rx="7"></rect>
    <rect x="460" y="249" width="60" height="22" rx="7"></rect>
    <rect x="460" y="299" width="60" height="22" rx="7"></rect>
    <rect x="486" y="349" width="34" height="22" rx="7"></rect>
    <rect x="464" y="399" width="56" height="22" rx="7"></rect>
  </g>
  <g text-anchor="middle" font-size="12" fill="#7dd3fc">
    <text x="497" y="214">+100</text>
    <text x="490" y="264">+25 ea</text>
    <text x="490" y="314">≥ 4.0×</text>
    <text x="503" y="364">kw</text>
    <text x="492" y="414">≥ μ+2σ</text>
  </g>

  
  <rect x="586" y="280" width="174" height="64" rx="12" fill="#0d1117" stroke="#22d3ee" stroke-width="1.5"></rect>
  <text x="673" y="296" text-anchor="middle" font-size="14" font-weight="700" fill="#22d3ee">candidate gate</text>
  <text x="673" y="316" text-anchor="middle" font-size="11" fill="#a3a3a3">≤ 20 · ≥ 120 s apart</text>
  <text x="673" y="335" text-anchor="middle" font-size="11" fill="#737373">60 s dedupe → [1, 100]</text>

  
  <rect x="798" y="280" width="204" height="64" rx="12" fill="#0d1117" stroke="#818cf8" stroke-width="1.5"></rect>
  <text x="900" y="296" text-anchor="middle" font-size="14" font-weight="700" fill="#22d3ee">LLM adjudication</text>
  <text x="900" y="316" text-anchor="middle" font-size="11" fill="#a3a3a3">1 cached call / candidate</text>
  <text x="900" y="335" text-anchor="middle" font-size="11" fill="#737373">Anthropic · OpenAI · Ollama</text>

  
  <rect x="1040" y="282" width="138" height="60" rx="12" fill="#0d1117" stroke="#22d3ee" stroke-width="1.5"></rect>
  <text x="1109" y="297" text-anchor="middle" font-size="14" font-weight="700" fill="#22d3ee">clips</text>
  <text x="1109" y="317" text-anchor="middle" font-size="11" fill="#a3a3a3">15-30 s each</text>
  <text x="1109" y="336" text-anchor="middle" font-size="11" fill="#737373">source-aspect cut</text>
</svg>