<svg xmlns="http://www.w3.org/2000/svg" width="1224" height="98" viewBox="0 0 1224 98">
  <defs>
    <marker id="arrowhead" markerWidth="8" markerHeight="6" refX="8" refY="3" orient="auto">
      <polygon points="0 0, 8 3, 0 6" fill="#818cf8" />
    </marker>
  </defs>
  <line x1="161" y1="37" x2="191" y2="37" stroke="#818cf8" stroke-width="1.5" marker-end="url(#arrowhead)"/>
  <line x1="335" y1="37" x2="365" y2="37" stroke="#818cf8" stroke-width="1.5" marker-end="url(#arrowhead)"/>
  <line x1="509" y1="37" x2="539" y2="37" stroke="#818cf8" stroke-width="1.5" marker-end="url(#arrowhead)"/>
  <line x1="683" y1="37" x2="713" y2="37" stroke="#818cf8" stroke-width="1.5" marker-end="url(#arrowhead)"/>
  <line x1="857" y1="37" x2="887" y2="37" stroke="#818cf8" stroke-width="1.5" marker-end="url(#arrowhead)"/>
  <line x1="1031" y1="37" x2="1061" y2="37" stroke="#818cf8" stroke-width="1.5" marker-end="url(#arrowhead)"/>
  <rect x="22" y="18" width="136" height="38" rx="7" fill="#0d1117" stroke="#22d3ee" stroke-width="1.5"/>
  <text x="90" y="38" text-anchor="middle" dominant-baseline="middle" fill="#e2e8f0" font-size="12" font-family="ui-monospace,SFMono-Regular,monospace" font-weight="500">Guest Search</text>
  <rect x="196" y="18" width="136" height="38" rx="7" fill="#0d1117" stroke="#22d3ee" stroke-width="1.5"/>
  <text x="264" y="38" text-anchor="middle" dominant-baseline="middle" fill="#e2e8f0" font-size="12" font-family="ui-monospace,SFMono-Regular,monospace" font-weight="500">Parse Cards</text>
  <rect x="370" y="18" width="136" height="38" rx="7" fill="#0d1117" stroke="#22d3ee" stroke-width="1.5"/>
  <text x="438" y="38" text-anchor="middle" dominant-baseline="middle" fill="#e2e8f0" font-size="12" font-family="ui-monospace,SFMono-Regular,monospace" font-weight="500">Detail API</text>
  <rect x="544" y="18" width="136" height="38" rx="7" fill="#0d1117" stroke="#22d3ee" stroke-width="1.5"/>
  <text x="612" y="38" text-anchor="middle" dominant-baseline="middle" fill="#e2e8f0" font-size="12" font-family="ui-monospace,SFMono-Regular,monospace" font-weight="500">Clean + Dedupe</text>
  <rect x="718" y="18" width="136" height="38" rx="7" fill="#0d1117" stroke="#22d3ee" stroke-width="1.5"/>
  <text x="786" y="38" text-anchor="middle" dominant-baseline="middle" fill="#e2e8f0" font-size="12" font-family="ui-monospace,SFMono-Regular,monospace" font-weight="500">OpenAI (opt)</text>
  <rect x="892" y="18" width="136" height="38" rx="7" fill="#0d1117" stroke="#22d3ee" stroke-width="1.5"/>
  <text x="960" y="38" text-anchor="middle" dominant-baseline="middle" fill="#e2e8f0" font-size="12" font-family="ui-monospace,SFMono-Regular,monospace" font-weight="500">SQLite</text>
  <rect x="1066" y="18" width="136" height="38" rx="7" fill="#0d1117" stroke="#22d3ee" stroke-width="1.5"/>
  <text x="1134" y="38" text-anchor="middle" dominant-baseline="middle" fill="#e2e8f0" font-size="12" font-family="ui-monospace,SFMono-Regular,monospace" font-weight="500">CSV Export</text>
</svg>