<svg xmlns="http://www.w3.org/2000/svg" width="1120" height="600" viewBox="0 0 1120 600" font-family="ui-monospace, SFMono-Regular, Menlo, monospace">
  <defs>
    <marker id="ar-cyan" viewBox="0 0 10 10" refX="9" refY="5" markerWidth="7" markerHeight="7" orient="auto-start-reverse">
      <path d="M0 0 L10 5 L0 10 z" fill="#818cf8" />
    </marker>
    <marker id="ar-amber" viewBox="0 0 10 10" refX="9" refY="5" markerWidth="7" markerHeight="7" orient="auto-start-reverse">
      <path d="M0 0 L10 5 L0 10 z" fill="#f59e0b" />
    </marker>
  </defs>

  <rect width="1120" height="600" fill="#0a0a0a" />
  <text x="48" y="46" fill="#e2e8f0" font-size="20" font-weight="700">Architecture — a stdlib-only core, the LLM as a bolt-on</text>
  <text x="48" y="72" fill="#64748b" font-size="13">Two entry points feed one pipeline; the deterministic report is built before any optional stage runs.</text>

  <!-- entry points -->
  <g>
    <rect x="48" y="118" width="190" height="52" rx="10" fill="#0b0e14" stroke="#818cf8" stroke-width="1.3" />
    <text x="143" y="142" text-anchor="middle" fill="#a5b4fc" font-size="13" font-weight="700">CLI entry</text>
    <text x="143" y="160" text-anchor="middle" fill="#64748b" font-size="11">reposage.cli:main</text>

    <rect x="48" y="186" width="190" height="52" rx="10" fill="#0b0e14" stroke="#818cf8" stroke-width="1.3" />
    <text x="143" y="210" text-anchor="middle" fill="#a5b4fc" font-size="13" font-weight="700">MCP server</text>
    <text x="143" y="228" text-anchor="middle" fill="#64748b" font-size="11">audit_repository → clone</text>
  </g>
  <path d="M238 144 H286 V178 H300" fill="none" stroke="#818cf8" stroke-width="1.6" marker-end="url(#ar-cyan)" />
  <path d="M238 212 H286 V178 H300" fill="none" stroke="#818cf8" stroke-width="1.6" />

  <!-- deterministic core container -->
  <rect x="300" y="100" width="772" height="200" rx="14" fill="#0b0e14" stroke="#22d3ee" stroke-width="1.4" />
  <text x="320" y="126" fill="#67e8f9" font-size="13" font-weight="700">DETERMINISTIC CORE</text>
  <text x="1052" y="126" text-anchor="end" fill="#22d3ee" font-size="12" font-weight="700">runtime deps = [ ]</text>

  <!-- core stages -->
  <g font-size="12.5">
    <rect x="320" y="150" width="132" height="92" rx="10" fill="#0d1117" stroke="#22d3ee" stroke-width="1.2" />
    <text x="386" y="180" text-anchor="middle" fill="#e2e8f0" font-size="13" font-weight="700">SCAN</text>
    <text x="386" y="202" text-anchor="middle" fill="#94a3b8">filesystem walk</text>
    <text x="386" y="220" text-anchor="middle" fill="#64748b" font-size="11">FileRecord list</text>

    <rect x="472" y="150" width="132" height="92" rx="10" fill="#0d1117" stroke="#22d3ee" stroke-width="1.2" />
    <text x="538" y="180" text-anchor="middle" fill="#e2e8f0" font-size="13" font-weight="700">DETECT</text>
    <text x="538" y="202" text-anchor="middle" fill="#94a3b8">29 langs · 32 fw</text>
    <text x="538" y="220" text-anchor="middle" fill="#64748b" font-size="11">+ TS analysis</text>

    <rect x="624" y="150" width="132" height="92" rx="10" fill="#0d1117" stroke="#22d3ee" stroke-width="1.2" />
    <text x="690" y="180" text-anchor="middle" fill="#e2e8f0" font-size="13" font-weight="700">PARSE</text>
    <text x="690" y="202" text-anchor="middle" fill="#94a3b8">10 manifests</text>
    <text x="690" y="220" text-anchor="middle" fill="#64748b" font-size="11">deps + inventory</text>

    <rect x="776" y="150" width="132" height="92" rx="10" fill="#0d1117" stroke="#22d3ee" stroke-width="1.2" />
    <text x="842" y="174" text-anchor="middle" fill="#e2e8f0" font-size="13" font-weight="700">ANALYZE</text>
    <text x="842" y="196" text-anchor="middle" fill="#94a3b8">quality · arch</text>
    <text x="842" y="214" text-anchor="middle" fill="#94a3b8">risk</text>

    <rect x="928" y="150" width="124" height="92" rx="10" fill="#0d1117" stroke="#67e8f9" stroke-width="1.4" />
    <text x="990" y="180" text-anchor="middle" fill="#67e8f9" font-size="13" font-weight="700">AuditReport</text>
    <text x="990" y="202" text-anchor="middle" fill="#94a3b8" font-size="11">immutable</text>
    <text x="990" y="220" text-anchor="middle" fill="#94a3b8" font-size="11">dataclass tree</text>
  </g>
  <!-- core arrows -->
  <g stroke="#818cf8" stroke-width="1.6" fill="none" marker-end="url(#ar-cyan)">
    <path d="M452 196 H470" />
    <path d="M604 196 H622" />
    <path d="M756 196 H774" />
    <path d="M908 196 H926" />
  </g>
  <text x="686" y="278" text-anchor="middle" fill="#64748b" font-size="11.5">deterministic outputs — no timestamps, random IDs, or nondeterministic ordering</text>

  <!-- optional bolt-ons -->
  <rect x="300" y="350" width="500" height="180" rx="14" fill="#140f02" stroke="#f59e0b" stroke-width="1.3" stroke-dasharray="7 5" />
  <text x="320" y="376" fill="#fcd34d" font-size="13" font-weight="700">OPTIONAL — opt-in, isolated by extra</text>
  <g font-size="12.5">
    <rect x="320" y="394" width="146" height="56" rx="10" fill="#1a1305" stroke="#f59e0b" stroke-width="1.1" />
    <text x="393" y="418" text-anchor="middle" fill="#fcd34d" font-size="12.5" font-weight="700">--security</text>
    <text x="393" y="437" text-anchor="middle" fill="#b08436" font-size="11">pip-audit · bandit · …</text>

    <rect x="484" y="394" width="146" height="56" rx="10" fill="#1a1305" stroke="#f59e0b" stroke-width="1.1" />
    <text x="557" y="418" text-anchor="middle" fill="#fcd34d" font-size="12.5" font-weight="700">--api-surface</text>
    <text x="557" y="437" text-anchor="middle" fill="#b08436" font-size="11">public/removed syms</text>

    <rect x="648" y="394" width="134" height="56" rx="10" fill="#1a1305" stroke="#f59e0b" stroke-width="1.1" />
    <text x="715" y="418" text-anchor="middle" fill="#fcd34d" font-size="12.5" font-weight="700">--enrich</text>
    <text x="715" y="437" text-anchor="middle" fill="#b08436" font-size="11">LLM · one Protocol</text>
  </g>
  <text x="320" y="486" fill="#b08436" font-size="11.5">Receives the already-built report. No key → clean exit 2. Forced JSON schema → can annotate,</text>
  <text x="320" y="504" fill="#b08436" font-size="11.5">never restructure. None of this runs in the core path.</text>

  <!-- arrow from core down into optional, and from both into render -->
  <path d="M550 300 V330 H550 V348" fill="none" stroke="#f59e0b" stroke-width="1.6" stroke-dasharray="6 4" marker-end="url(#ar-amber)" />

  <!-- render -->
  <rect x="868" y="394" width="204" height="92" rx="12" fill="#0d1117" stroke="#818cf8" stroke-width="1.4" />
  <text x="970" y="426" text-anchor="middle" fill="#a5b4fc" font-size="14" font-weight="700">RENDER</text>
  <text x="970" y="450" text-anchor="middle" fill="#e2e8f0" font-size="12.5">Markdown / JSON report</text>
  <text x="970" y="470" text-anchor="middle" fill="#64748b" font-size="11">+ optional agent brief</text>

  <path d="M990 242 V300 H970 V392" fill="none" stroke="#818cf8" stroke-width="1.6" marker-end="url(#ar-cyan)" />
  <path d="M782 440 H866" fill="none" stroke="#f59e0b" stroke-width="1.6" stroke-dasharray="6 4" marker-end="url(#ar-amber)" />

  <text x="560" y="566" text-anchor="middle" fill="#64748b" font-size="12.5">The report exists before any optional stage runs — enrichment raises the ceiling, it is never the floor.</text>
</svg>
