<svg xmlns="http://www.w3.org/2000/svg" width="1120" height="430" viewBox="0 0 1120 430" font-family="ui-monospace, SFMono-Regular, Menlo, monospace">
  <rect width="1120" height="430" fill="#0a0a0a" />
  <text x="48" y="48" fill="#e2e8f0" font-size="20" font-weight="700">Fail-open — a partial report beats an exception</text>
  <text x="48" y="74" fill="#64748b" font-size="13">A repo it can’t fully parse still produces a valid, evidence-backed report. The scan always completes.</text>

  <!-- catches panel -->
  <rect x="48" y="104" width="560" height="270" rx="12" fill="#0b0e14" stroke="#22d3ee" stroke-width="1.3" />
  <text x="72" y="138" fill="#67e8f9" font-size="14" font-weight="700">EVERY STAGE DEGRADES GRACEFULLY</text>
  <g font-size="13.5">
    <path d="M76 174 l7 7 l13 -15" fill="none" stroke="#22d3ee" stroke-width="2.4" stroke-linecap="round" stroke-linejoin="round" />
    <text x="108" y="180" fill="#cbd5e1">manifest parsers catch OSError + decode errors</text>
    <text x="108" y="200" fill="#64748b" font-size="11">unreadable manifest → empty list, not a crash</text>

    <path d="M76 224 l7 7 l13 -15" fill="none" stroke="#22d3ee" stroke-width="2.4" stroke-linecap="round" stroke-linejoin="round" />
    <text x="108" y="230" fill="#cbd5e1">security checks never crash the scan</text>
    <text x="108" y="250" fill="#64748b" font-size="11">every failure is logged; the scan completes</text>

    <path d="M76 274 l7 7 l13 -15" fill="none" stroke="#22d3ee" stroke-width="2.4" stroke-linecap="round" stroke-linejoin="round" />
    <text x="108" y="280" fill="#cbd5e1">symlinks skipped during the walk</text>
    <text x="108" y="300" fill="#64748b" font-size="11">no cycles, no escapes out of the tree</text>

    <path d="M76 324 l7 7 l13 -15" fill="none" stroke="#22d3ee" stroke-width="2.4" stroke-linecap="round" stroke-linejoin="round" />
    <text x="108" y="330" fill="#cbd5e1">the scan always completes</text>
    <text x="108" y="350" fill="#64748b" font-size="11">missing data is reported as missing, never fatal</text>
  </g>

  <!-- contrast panel -->
  <rect x="632" y="104" width="440" height="270" rx="12" fill="#0b0e14" stroke="#334155" stroke-width="1.2" />
  <text x="656" y="138" fill="#94a3b8" font-size="14" font-weight="700">PARTIAL &gt; NOTHING</text>

  <text x="656" y="180" fill="#cbd5e1" font-size="13">report still carries:</text>
  <g font-size="12.5" fill="#94a3b8">
    <text x="672" y="208">· inventory + the languages it could read</text>
    <text x="672" y="230">· quality score over what parsed</text>
    <text x="672" y="252">· risk + architecture from available signal</text>
    <text x="672" y="274">· tools_skipped, naming exactly what failed</text>
  </g>

  <line x1="656" y1="300" x2="1048" y2="300" stroke="#1e293b" stroke-width="1" />
  <text x="656" y="328" fill="#64748b" font-size="11.5">One known gap: files vanishing mid-scan</text>
  <text x="656" y="348" fill="#64748b" font-size="11.5">may not be caught. Named, not hidden.</text>

  <text x="560" y="408" text-anchor="middle" fill="#64748b" font-size="12.5">Reliability as a property of the design: the audit never blocks on the thing it couldn’t read.</text>
</svg>
