<svg xmlns="http://www.w3.org/2000/svg" width="1120" height="460" viewBox="0 0 1120 460" font-family="ui-monospace, SFMono-Regular, Menlo, monospace">
  <rect width="1120" height="460" fill="#0a0a0a" />
  <text x="48" y="48" fill="#e2e8f0" font-size="20" font-weight="700">Quality score — six file-presence checks → X / 100</text>
  <text x="48" y="74" fill="#64748b" font-size="13">Every finding points at the evidence that produced it. No opinion, just presence.</text>

  <!-- six checks panel -->
  <rect x="48" y="104" width="588" height="312" rx="12" fill="#0b0e14" stroke="#22d3ee" stroke-width="1.3" />
  <text x="72" y="138" fill="#67e8f9" font-size="14" font-weight="700">SCORED CHECKS</text>
  <text x="612" y="138" text-anchor="end" fill="#22d3ee" font-size="12">score = present / 6 × 100</text>
  <g font-size="13.5">
    <g>
      <path d="M76 168 l7 7 l13 -15" fill="none" stroke="#22d3ee" stroke-width="2.4" stroke-linecap="round" stroke-linejoin="round" />
      <text x="108" y="174" fill="#cbd5e1">tests present</text>
      <text x="372" y="174" fill="#64748b" font-size="11">detect_test_files</text>
    </g>
    <g>
      <path d="M76 206 l7 7 l13 -15" fill="none" stroke="#22d3ee" stroke-width="2.4" stroke-linecap="round" stroke-linejoin="round" />
      <text x="108" y="212" fill="#cbd5e1">CI present</text>
      <text x="372" y="212" fill="#64748b" font-size="11">.github/workflows · gitlab · azure</text>
    </g>
    <g>
      <path d="M76 244 l7 7 l13 -15" fill="none" stroke="#22d3ee" stroke-width="2.4" stroke-linecap="round" stroke-linejoin="round" />
      <text x="108" y="250" fill="#cbd5e1">docs present</text>
      <text x="372" y="250" fill="#64748b" font-size="11">docs/ · README*</text>
    </g>
    <g>
      <path d="M76 282 l7 7 l13 -15" fill="none" stroke="#22d3ee" stroke-width="2.4" stroke-linecap="round" stroke-linejoin="round" />
      <text x="108" y="288" fill="#cbd5e1">packaging present</text>
      <text x="372" y="288" fill="#64748b" font-size="11">pyproject · package.json · setup.*</text>
    </g>
    <g>
      <path d="M76 320 l7 7 l13 -15" fill="none" stroke="#22d3ee" stroke-width="2.4" stroke-linecap="round" stroke-linejoin="round" />
      <text x="108" y="326" fill="#cbd5e1">lint config present</text>
      <text x="372" y="326" fill="#64748b" font-size="11">14 filenames + [tool.ruff]</text>
    </g>
    <g>
      <path d="M76 358 l7 7 l13 -15" fill="none" stroke="#22d3ee" stroke-width="2.4" stroke-linecap="round" stroke-linejoin="round" />
      <text x="108" y="364" fill="#cbd5e1">typing present</text>
      <text x="372" y="364" fill="#64748b" font-size="11">+ statically-typed-lang shortcut</text>
    </g>
  </g>
  <text x="72" y="398" fill="#64748b" font-size="11.5">+ 4 TypeScript strictness checks when a tsconfig is found.</text>

  <!-- risk rules panel -->
  <rect x="660" y="104" width="412" height="312" rx="12" fill="#140f02" stroke="#f59e0b" stroke-width="1.3" />
  <text x="684" y="138" fill="#fcd34d" font-size="14" font-weight="700">RISK RULES — 5 + fallback</text>
  <g font-size="13">
    <text x="684" y="178" fill="#f59e0b" font-size="11" font-weight="700">HIGH</text>
    <text x="740" y="178" fill="#e7c38a">no tests</text>
    <text x="740" y="200" fill="#e7c38a">no CI</text>

    <text x="684" y="236" fill="#d8943a" font-size="11" font-weight="700">MED</text>
    <text x="740" y="236" fill="#e7c38a">god modules ≥ 200 lines</text>
    <text x="740" y="258" fill="#e7c38a">no docs</text>

    <text x="684" y="294" fill="#b08436" font-size="11" font-weight="700">LOW</text>
    <text x="740" y="294" fill="#e7c38a">≥ 25 dependencies</text>
  </g>
  <line x1="684" y1="322" x2="1048" y2="322" stroke="#3a2c0a" stroke-width="1" />
  <text x="684" y="350" fill="#b08436" font-size="11.5">Fallback: "no major risks" when none</text>
  <text x="684" y="372" fill="#b08436" font-size="11.5">of the above fire — every rule is</text>
  <text x="684" y="394" fill="#b08436" font-size="11.5">backed by a counted, locatable signal.</text>
</svg>
