<svg xmlns="http://www.w3.org/2000/svg" width="1120" height="540" viewBox="0 0 1120 540" font-family="ui-sans-serif, system-ui, -apple-system, Segoe UI, Roboto, sans-serif">
  <defs>
    <marker id="ma-ar" viewBox="0 0 10 10" refX="9" refY="5" markerWidth="8" markerHeight="8" orient="auto-start-reverse"><path d="M0 0 L10 5 L0 10 z" fill="#818cf8" /></marker>
  </defs>
  <rect width="1120" height="540" fill="#0a0a0a" />

  <text x="48" y="50" fill="#f8fafc" font-size="24" font-weight="700">How Myocardial Mesh works</text>
  <text x="48" y="80" fill="#94a3b8" font-size="15">You bring the heart model and its wiring; the library simulates the electrical wave and turns it into an ECG.</text>

  <!-- inputs column -->
  <text x="48" y="124" fill="#94a3b8" font-size="13" font-weight="700">YOU PROVIDE</text>
  <rect x="48" y="138" width="226" height="44" rx="10" fill="#0d1117" stroke="#334155" stroke-width="1.3" />
  <text x="161" y="165" text-anchor="middle" fill="#cbd5e1" font-size="14">3D heart-muscle model</text>
  <rect x="48" y="194" width="226" height="44" rx="10" fill="#0d1117" stroke="#334155" stroke-width="1.3" />
  <text x="161" y="221" text-anchor="middle" fill="#cbd5e1" font-size="14">electrical &#8220;wiring&#8221; tree</text>
  <rect x="48" y="250" width="226" height="44" rx="10" fill="#0d1117" stroke="#334155" stroke-width="1.3" />
  <text x="161" y="277" text-anchor="middle" fill="#cbd5e1" font-size="14">sensor positions</text>

  <!-- the engine (heart) -->
  <rect x="338" y="132" width="332" height="170" rx="16" fill="#0b1f24" stroke="#22d3ee" stroke-width="2.2" />
  <text x="504" y="166" text-anchor="middle" fill="#67e8f9" font-size="16" font-weight="700">The coupling loop</text>
  <text x="504" y="190" text-anchor="middle" fill="#94a3b8" font-size="12.5">the heart of the library</text>
  <text x="504" y="224" text-anchor="middle" fill="#cbd5e1" font-size="13.5">fire the wiring &#8594; spread the wave</text>
  <text x="504" y="246" text-anchor="middle" fill="#cbd5e1" font-size="13.5">through the muscle &#8594; read the ECG</text>
  <text x="504" y="268" text-anchor="middle" fill="#cbd5e1" font-size="13.5">&#8594; check it settled &#8594; repeat</text>
  <text x="504" y="290" text-anchor="middle" fill="#94a3b8" font-size="12">the wave-speed math is run by a trusted external solver</text>

  <!-- ecg out -->
  <rect x="734" y="156" width="338" height="122" rx="14" fill="#0d1117" stroke="#334155" stroke-width="1.5" />
  <text x="903" y="186" text-anchor="middle" fill="#e2e8f0" font-size="16" font-weight="700">A 12-lead ECG</text>
  <polyline points="758,230 800,230 810,220 820,230 840,230 848,242 856,200 864,250 872,230 900,230 910,218 922,230 1048,230"
    fill="none" stroke="#67e8f9" stroke-width="2" stroke-linejoin="round" stroke-linecap="round" opacity="0.9" />
  <text x="903" y="262" text-anchor="middle" fill="#64748b" font-size="11">I · II · III · aVR · aVL · aVF · V1–V6</text>

  <!-- arrows -->
  <path d="M274 216 H336" fill="none" stroke="#818cf8" stroke-width="2" marker-end="url(#ma-ar)" />
  <path d="M670 217 H732" fill="none" stroke="#818cf8" stroke-width="2" marker-end="url(#ma-ar)" />

  <!-- honest scope -->
  <rect x="48" y="346" width="1024" height="156" rx="12" fill="#0b0e14" stroke="#1e293b" stroke-width="1.1" />
  <text x="68" y="376" fill="#94a3b8" font-size="14" font-weight="700">HONEST SCOPE</text>
  <g font-size="14" fill="#94a3b8">
    <text x="68" y="406">→ It is the <tspan fill="#cbd5e1">glue and the proof</tspan>, not the heavy math — the wave-speed solving is delegated to an external library.</text>
    <text x="68" y="434">→ Not a heart-model builder, not a clinical tool — you supply the model and wiring; it stays a research library.</text>
    <text x="68" y="462">→ <tspan fill="#cbd5e1">Not published</tspan> yet (release automation is set up, nothing shipped); GPU path is plumbed but only the CPU path is tested.</text>
    <text x="68" y="490">→ A small, focused surface (one main entry point) with a deliberately narrow, well-tested job.</text>
  </g>
</svg>
